<svg width="160" height="91" viewBox="0 0 160 91" fill="none" xmlns="http://www.w3.org/2000/svg">
<circle cx="80" cy="52" r="39" fill="url(#paint0_linear_288_4055)"/>
<rect y="90" width="160" height="1" fill="#09CAC7"/>
<path d="M107.027 52.2581H82.3493H77.6518H52.9744L47.168 63.871H52.4199V90H107.581V63.871H112.833L107.027 52.2581ZM105.232 55.1613L108.136 60.9677H85.2525L82.3493 55.1613H105.232ZM54.7686 55.1613H77.6518L74.7486 60.9677H51.8654L54.7686 55.1613ZM104.678 87.0968H81.4522V76.9355H78.5489V87.0968H55.3231V63.871H76.5428L78.5489 59.8587V72.5806H81.4522V59.8587L83.4583 63.871H104.678V87.0968Z" fill="#09CAC7"/>
<path d="M72.7411 81.2903H69.8379V84.1935H72.7411V81.2903Z" fill="#09CAC7"/>
<path d="M66.9362 81.2903H58.2266V84.1935H66.9362V81.2903Z" fill="#09CAC7"/>
<path d="M66.9362 75.4839H58.2266V78.3871H66.9362V75.4839Z" fill="#09CAC7"/>
<path d="M40.8056 50.8064H37.9023V53.7096H40.8056V50.8064Z" fill="#EF5A56"/>
<path d="M43.7099 47.9032H40.8066V50.8064H43.7099V47.9032Z" fill="#EF5A56"/>
<path d="M37.9032 47.9032H35V50.8064H37.9032V47.9032Z" fill="#EF5A56"/>
<path d="M122.097 45H119.193V47.9032H122.097V45Z" fill="#EF5A56"/>
<path d="M40.8056 45H37.9023V47.9032H40.8056V45Z" fill="#EF5A56"/>
<path d="M125.001 42.0968H122.098V45H125.001V42.0968Z" fill="#EF5A56"/>
<path d="M119.194 42.0968H116.291V45H119.194V42.0968Z" fill="#EF5A56"/>
<path d="M122.097 39.1936H119.193V42.0968H122.097V39.1936Z" fill="#EF5A56"/>
<path d="M81.4521 30.4839H78.5488V49.3549H81.4521V30.4839Z" fill="#09CAC7"/>
<path d="M117.712 26.5718L119.821 22.9703L116.085 21.3518L113.386 18.0145L110.688 21.3503L106.951 22.9689L109.06 26.5703L109.372 30.8657L113.386 29.8452L117.401 30.8671L117.712 26.5718ZM114.867 25.6863L114.756 27.1974L113.386 26.849L112.017 27.1974L111.907 25.6863L111.113 24.329L112.496 23.7295L113.386 22.6307L114.276 23.731L115.659 24.3305L114.867 25.6863Z" fill="#F5BE00"/>
<path d="M50.9385 26.5718L53.0477 22.9703L49.3113 21.3518L46.6127 18.0145L43.9142 21.3503L40.1777 22.9689L42.2869 26.5703L42.599 30.8657L46.6127 29.8452L50.6279 30.8671L50.9385 26.5718ZM48.0934 25.6863L47.9831 27.1974L46.6127 26.849L45.2439 27.1974L45.1321 25.6863L44.3381 24.329L45.7214 23.7295L46.6127 22.6307L47.5026 23.731L48.886 24.3305L48.0934 25.6863Z" fill="#F5BE00"/>
<path d="M53.065 34.5948C55.8289 36.4384 58.285 38.6884 60.3593 41.2838L66.1092 48.4679L64.9203 38.9569C64.299 33.9909 61.6469 29.4198 57.6434 26.4179L56.2527 25.3756L51.998 33.8835L53.065 34.5948ZM57.2485 29.8771C59.7032 32.1996 61.3682 35.2916 61.9387 38.6361C60.1053 36.4833 58.0251 34.5643 55.7316 32.9109L57.2485 29.8771Z" fill="#09CAC7"/>
<path d="M95.0795 38.957L93.8906 48.468L99.6405 41.2825C101.716 38.687 104.171 36.437 106.935 34.5935L108 33.8822L103.746 25.3743L102.355 26.4194C98.3529 29.4214 95.6993 33.991 95.0795 38.957ZM104.268 32.911C101.975 34.5644 99.893 36.482 98.0611 38.6362C98.633 35.2917 100.297 32.1998 102.751 29.8772L104.268 32.911Z" fill="#09CAC7"/>
<path d="M81.4521 24.6774H78.5488V27.5806H81.4521V24.6774Z" fill="#EF5A56"/>
<path d="M73.2967 23.609L80.0003 21.9005L86.7038 23.6076L87.2293 16.409L90.7901 10.3268L84.4916 7.60062L80.0003 2.04675L75.5075 7.60062L69.209 10.3268L72.7698 16.409L73.2967 23.609ZM77.3162 9.97982L80.0003 6.66288L82.6843 9.98127L86.6298 11.6898L84.3841 15.5264L84.0619 19.9408L80.0003 18.9058L75.9387 19.9393L75.6164 15.525L73.3708 11.6884L77.3162 9.97982Z" fill="#F5BE00"/>
<path d="M85.8066 49.3548H88.7099V43.2726C88.7099 36.3005 91.1674 29.5127 95.6326 24.1548L93.4015 22.2968C88.5037 28.1743 85.8066 35.624 85.8066 43.2726V49.3548Z" fill="#09CAC7"/>
<path d="M71.2904 49.3548H74.1937V43.2726C74.1937 35.6226 71.4966 28.1743 66.6003 22.2968L64.3691 24.1548C68.8328 29.5127 71.2904 36.3005 71.2904 43.2726V49.3548Z" fill="#09CAC7"/>
<path d="M98.87 17.4193H95.9668V20.3225H98.87V17.4193Z" fill="#EF5A56"/>
<path d="M64.0321 17.4193H61.1289V20.3225H64.0321V17.4193Z" fill="#EF5A56"/>
<path d="M103.225 11.6129H100.322V14.5161H103.225V11.6129Z" fill="#EF5A56"/>
<path d="M59.6767 11.6129H56.7734V14.5161H59.6767V11.6129Z" fill="#EF5A56"/>
<path d="M117.741 5.8064H114.838V8.70962H117.741V5.8064Z" fill="#EF5A56"/>
<path d="M40.8056 5.8064H37.9023V8.70962H40.8056V5.8064Z" fill="#EF5A56"/>
<path d="M120.645 2.9032H117.742V5.80642H120.645V2.9032Z" fill="#EF5A56"/>
<path d="M114.839 2.9032H111.936V5.80642H114.839V2.9032Z" fill="#EF5A56"/>
<path d="M43.7099 2.9032H40.8066V5.80642H43.7099V2.9032Z" fill="#EF5A56"/>
<path d="M37.9032 2.9032H35V5.80642H37.9032V2.9032Z" fill="#EF5A56"/>
<path d="M117.741 0H114.838V2.90323H117.741V0Z" fill="#EF5A56"/>
<path d="M40.8056 0H37.9023V2.90323H40.8056V0Z" fill="#EF5A56"/>
<defs>
<linearGradient id="paint0_linear_288_4055" x1="80" y1="13" x2="80" y2="91" gradientUnits="userSpaceOnUse">
<stop stop-color="#EFD7DE"/>
<stop offset="1" stop-color="#ECDADF" stop-opacity="0"/>
</linearGradient>
</defs>
</svg>
